<?xml version="1.0" encoding="UTF-8"?>
<svg xmlns="http://www.w3.org/2000/svg" xmlns:xlink="http://www.w3.org/1999/xlink" width="19pt" height="19pt" viewBox="0 0 19 19" version="1.1">
<g id="surface1035164">
<path style=" stroke:none;fill-rule:nonzero;fill:rgb(90.588235%,29.803922%,23.529412%);fill-opacity:1;" d="M 7.816406 2.46875 C 7.277344 2.46875 6.839844 2.925781 6.839844 3.488281 L 6.839844 3.800781 L 5.5625 3.800781 C 3.949219 3.800781 3.230469 4.488281 3.230469 6.035156 L 3.230469 7.03125 C 3.230469 7.082031 3.25 7.128906 3.285156 7.164062 L 4.179688 8.058594 L 4.179688 8.554688 C 3.746094 8.640625 3.421875 9.027344 3.421875 9.484375 L 3.421875 10.246094 C 3.421875 10.703125 3.746094 11.085938 4.179688 11.175781 L 4.179688 14.308594 C 4.179688 15.636719 5.15625 16.53125 6.605469 16.53125 L 12.355469 16.53125 C 13.832031 16.53125 14.820312 15.636719 14.820312 14.308594 L 14.820312 11.175781 C 15.253906 11.085938 15.578125 10.703125 15.578125 10.246094 L 15.578125 9.484375 C 15.578125 9.027344 15.253906 8.640625 14.820312 8.554688 L 14.820312 8.042969 L 15.714844 7.164062 C 15.75 7.128906 15.769531 7.082031 15.769531 7.03125 L 15.769531 6.035156 C 15.769531 4.488281 15.050781 3.800781 13.4375 3.800781 L 12.160156 3.800781 L 12.160156 3.488281 C 12.160156 2.925781 11.722656 2.46875 11.183594 2.46875 Z M 7.816406 2.851562 L 11.183594 2.851562 C 11.511719 2.851562 11.78125 3.136719 11.78125 3.488281 L 11.78125 3.800781 L 7.21875 3.800781 L 7.21875 3.488281 C 7.21875 3.136719 7.488281 2.851562 7.816406 2.851562 Z M 5.5625 4.179688 L 13.4375 4.179688 C 14.773438 4.179688 15.347656 4.679688 15.386719 5.890625 L 3.613281 5.890625 C 3.617188 5.753906 3.628906 5.628906 3.648438 5.511719 L 13.773438 5.511719 C 13.828125 5.511719 13.871094 5.46875 13.871094 5.414062 C 13.871094 5.363281 13.828125 5.320312 13.773438 5.320312 L 3.683594 5.320312 C 3.878906 4.519531 4.460938 4.179688 5.5625 4.179688 Z M 14.34375 5.320312 C 14.292969 5.320312 14.25 5.363281 14.25 5.414062 C 14.25 5.46875 14.292969 5.511719 14.34375 5.511719 L 14.914062 5.511719 C 14.96875 5.511719 15.011719 5.46875 15.011719 5.414062 C 15.011719 5.363281 14.96875 5.320312 14.914062 5.320312 Z M 3.609375 6.269531 L 15.390625 6.269531 L 15.390625 6.648438 L 3.609375 6.648438 Z M 3.609375 6.839844 L 15.390625 6.839844 L 15.390625 6.949219 L 14.496094 7.828125 C 14.460938 7.863281 14.441406 7.914062 14.441406 7.964844 L 14.441406 14.308594 C 14.441406 14.761719 14.3125 15.117188 14.109375 15.390625 L 4.882812 15.390625 C 4.683594 15.117188 4.558594 14.761719 4.558594 14.308594 L 4.558594 7.980469 C 4.558594 7.929688 4.539062 7.882812 4.503906 7.84375 L 3.609375 6.953125 Z M 6.078125 7.585938 C 5.765625 7.585938 5.511719 7.839844 5.511719 8.15625 L 5.511719 11.496094 C 5.511719 11.546875 5.550781 11.589844 5.605469 11.589844 C 5.65625 11.589844 5.699219 11.546875 5.699219 11.496094 L 5.699219 8.15625 C 5.699219 7.945312 5.871094 7.773438 6.078125 7.773438 C 6.289062 7.773438 6.460938 7.945312 6.460938 8.15625 L 6.460938 14.042969 C 6.460938 14.253906 6.289062 14.425781 6.078125 14.425781 C 5.871094 14.425781 5.699219 14.253906 5.699219 14.042969 L 5.699219 13.394531 C 5.699219 13.34375 5.65625 13.300781 5.605469 13.300781 C 5.550781 13.300781 5.511719 13.34375 5.511719 13.394531 L 5.511719 14.042969 C 5.511719 14.359375 5.765625 14.613281 6.078125 14.613281 C 6.394531 14.613281 6.648438 14.359375 6.648438 14.042969 L 6.648438 8.15625 C 6.648438 7.839844 6.394531 7.585938 6.078125 7.585938 Z M 8.359375 7.601562 C 8.046875 7.601562 7.789062 7.855469 7.789062 8.171875 L 7.789062 14.058594 C 7.789062 14.375 8.046875 14.628906 8.359375 14.628906 C 8.675781 14.628906 8.929688 14.375 8.929688 14.058594 L 8.929688 8.171875 C 8.929688 7.855469 8.675781 7.601562 8.359375 7.601562 Z M 10.640625 7.601562 C 10.324219 7.601562 10.070312 7.855469 10.070312 8.171875 L 10.070312 14.058594 C 10.070312 14.375 10.324219 14.628906 10.640625 14.628906 C 10.953125 14.628906 11.210938 14.375 11.210938 14.058594 L 11.210938 8.171875 C 11.210938 7.855469 10.953125 7.601562 10.640625 7.601562 Z M 12.921875 7.601562 C 12.605469 7.601562 12.351562 7.855469 12.351562 8.171875 L 12.351562 14.058594 C 12.351562 14.375 12.605469 14.628906 12.921875 14.628906 C 13.234375 14.628906 13.488281 14.375 13.488281 14.058594 L 13.488281 8.171875 C 13.488281 7.855469 13.234375 7.601562 12.921875 7.601562 Z M 8.359375 7.789062 C 8.570312 7.789062 8.738281 7.960938 8.738281 8.171875 L 8.738281 14.058594 C 8.738281 14.269531 8.570312 14.441406 8.359375 14.441406 C 8.152344 14.441406 7.980469 14.269531 7.980469 14.058594 L 7.980469 8.171875 C 7.980469 7.960938 8.152344 7.789062 8.359375 7.789062 Z M 10.640625 7.789062 C 10.847656 7.789062 11.019531 7.960938 11.019531 8.171875 L 11.019531 14.058594 C 11.019531 14.269531 10.847656 14.441406 10.640625 14.441406 C 10.429688 14.441406 10.261719 14.269531 10.261719 14.058594 L 10.261719 8.171875 C 10.261719 7.960938 10.429688 7.789062 10.640625 7.789062 Z M 12.921875 7.789062 C 13.128906 7.789062 13.300781 7.960938 13.300781 8.171875 L 13.300781 14.058594 C 13.300781 14.269531 13.128906 14.441406 12.921875 14.441406 C 12.710938 14.441406 12.539062 14.269531 12.539062 14.058594 L 12.539062 8.171875 C 12.539062 7.960938 12.710938 7.789062 12.921875 7.789062 Z M 4.179688 8.945312 L 4.179688 10.78125 C 3.957031 10.703125 3.800781 10.492188 3.800781 10.246094 L 3.800781 9.484375 C 3.800781 9.238281 3.957031 9.023438 4.179688 8.945312 Z M 14.820312 8.945312 C 15.042969 9.023438 15.199219 9.238281 15.199219 9.484375 L 15.199219 10.242188 C 15.199219 10.492188 15.042969 10.703125 14.820312 10.78125 Z M 5.605469 11.78125 C 5.550781 11.78125 5.511719 11.824219 5.511719 11.875 L 5.511719 12.445312 C 5.511719 12.496094 5.550781 12.539062 5.605469 12.539062 C 5.65625 12.539062 5.699219 12.496094 5.699219 12.445312 L 5.699219 11.875 C 5.699219 11.824219 5.65625 11.78125 5.605469 11.78125 Z M 5.046875 15.578125 L 13.945312 15.578125 C 13.527344 15.984375 12.917969 16.148438 12.355469 16.148438 L 6.605469 16.148438 C 6.054688 16.148438 5.453125 15.984375 5.046875 15.578125 Z M 5.046875 15.578125 "/>
</g>
</svg>
